<?xml version="1.0" encoding="utf-8"?>
<!-- Generator: Adobe Illustrator 21.1.0, SVG Export Plug-In . SVG Version: 6.00 Build 0)  -->
<svg version="1.1" id="Layer_1" xmlns="http://www.w3.org/2000/svg" xmlns:xlink="http://www.w3.org/1999/xlink" x="0px" y="0px"
	 viewBox="0 0 512 512" style="enable-background:new 0 0 512 512;" xml:space="preserve">
<style type="text/css">
	.st0{fill:#F7911E;}
	.st1{fill:#D1D3D4;}
	.st2{fill:#4AA7ED;}
	.st3{fill:#F9AE18;}
	.st4{fill:#FFFFFF;}
</style>
<path class="st0" d="M283,475c0,14.9-12.1,27-27,27s-27-12.1-27-27s12.1-27,27-27S283,460.1,283,475z"/>
<path class="st1" d="M99,244v-34H67v41"/>
<path class="st1" d="M413,244v-34h32v41L413,244z"/>
<path class="st2" d="M114,249.9c-39.1,14-67,51.3-67,95.1s27.9,81.2,67,95.1V249.9z"/>
<path class="st2" d="M436.3,250.3v189.3c38.4-14.3,65.7-51.3,65.7-94.7C502,301.6,474.6,264.6,436.3,250.3z"/>
<path class="st3" d="M275,10.9C173.6,20.5,94,106.1,94,210h26.1c0-74.9,61-135.9,135.9-135.9c6.4,0,12.8,0.5,19,1.3
	c6.2-0.9,12.6-1.3,19-1.3c74.9,0,135.9,61,135.9,135.9H456C456,106.1,376.4,20.5,275,10.9z"/>
<path class="st4" d="M78.3,305.7c5.5,0,10-4.5,10-10v-0.9c0-5.5-4.5-10-10-10s-10,4.5-10,10v0.9C68.3,301.2,72.8,305.7,78.3,305.7z"
	/>
<path class="st4" d="M78.3,405.1c5.5,0,10-4.5,10-10v-70c0-5.5-4.5-10-10-10s-10,4.5-10,10v70C68.3,400.7,72.8,405.1,78.3,405.1z"/>
<path class="st4" d="M433.7,284.8c-5.5,0-10,4.5-10,10v0.9c0,5.5,4.5,10,10,10s10-4.5,10-10v-0.9
	C443.7,289.3,439.2,284.8,433.7,284.8z"/>
<path class="st4" d="M433.7,315.1c-5.5,0-10,4.5-10,10v70c0,5.5,4.5,10,10,10s10-4.5,10-10v-70C443.7,319.6,439.2,315.1,433.7,315.1
	z"/>
<path d="M455,248v-28h1c5.5,0,10-4.5,10-10C466,94.2,371.8,0,256,0S46,94.2,46,210c0,5.5,4.5,10,10,10h1v28c-34,19-57,55.3-57,97
	c0,46.2,28.4,85.9,68.7,102.6c2.7,21.6,21.2,38.4,43.6,38.4h108.4c4.7,15,18.8,26,35.3,26c20.4,0,37-16.6,37-37s-16.6-37-37-37
	c-17.3,0-31.9,11.9-35.9,28H112.3c-8.7,0-16.4-4.7-20.5-11.7c6.3,1.1,12.7,1.7,19.3,1.7h3c5.5,0,10-4.5,10-10V244
	c0-2.7-1.1-5.2-2.9-7.1s-4.4-2.9-7.1-2.9h-3c-0.7,0-1.3,0-2,0v-14h11.1c5.5,0,10-4.5,10-10c0-69.4,56.5-125.9,125.9-125.9
	S381.9,140.6,381.9,210c0,5.5,4.5,10,10,10H403v14c-0.7,0-1.3,0-2,0h-3c-2.6,0-5.2,1.1-7.1,2.9c-1.9,1.9-2.9,4.4-2.9,7.1v202
	c0,5.5,4.5,10,10,10h3c61.2,0,111-49.8,111-111C512,303.4,489,267,455,248z M256,458c9.4,0,17,7.6,17,17s-7.6,17-17,17
	s-17-7.6-17-17S246.6,458,256,458z M104,435.7c-46.9-3.6-84-42.9-84-90.7s37.1-87.1,84-90.7V435.7z M89,235.9l-12,2.6V220h12V235.9z
	 M256,64.1c-77.1,0-140.4,60.1-145.6,135.9H66.3C71.5,99.9,154.6,20,256,20s184.5,79.9,189.7,180h-44.2
	C396.4,124.2,333.1,64.1,256,64.1z M423,220h12v19.3c-3.9-1.3-7.9-2.3-12-3.1V220z M408,435.7V254.3c46.9,3.6,84,42.9,84,90.7
	S454.9,432.1,408,435.7z"/>
</svg>
