<?xml version="1.0" encoding="utf-8"?>
<!-- Generator: Adobe Illustrator 21.1.0, SVG Export Plug-In . SVG Version: 6.00 Build 0)  -->
<svg version="1.1" id="Layer_1" xmlns="http://www.w3.org/2000/svg" xmlns:xlink="http://www.w3.org/1999/xlink" x="0px" y="0px"
	 viewBox="0 0 512 512" style="enable-background:new 0 0 512 512;" xml:space="preserve">
<style type="text/css">
	.st0{fill:#C99A4A;}
</style>
<g>
	<g>
		<g>
			<path class="st0" d="M393.8,117.2c-36.5-36.5-85-56.7-136.7-56.7c-106.6,0-193.3,86.7-193.4,193.3c0,36.5,10.2,72.1,29.6,102.9
				l2,3.1L77.9,423c-1,3.5,0,7.3,2.6,9.9c2.6,2.6,6.3,3.6,9.8,2.7l65.2-17.1l3,1.8c29.7,17.6,63.7,26.9,98.4,27h0.1
				c106.5,0,193.2-86.7,193.3-193.3C450.3,202.3,430.2,153.7,393.8,117.2z M257,426.9v10.2V426.9c-31.1,0-61.5-8.3-88.1-24.1l-6.7-4
				c-1.6-0.9-3.4-1.4-5.2-1.4c-0.9,0-1.7,0.1-2.6,0.3l-52.2,13.7l13.8-50.5c0.8-2.8,0.3-5.7-1.2-8.1l-4.4-6.9
				c-17.3-27.5-26.4-59.3-26.4-92c0-95.3,77.6-172.9,173-172.9c46.2,0,89.6,18,122.2,50.7c32.6,32.7,50.6,76.1,50.6,122.3
				C429.9,349.3,352.3,426.9,257,426.9z"/>
			<path class="st0" d="M436.6,74.4C388.6,26.5,324.9,0,257,0C117.1,0,3.3,113.8,3.2,253.8c0,43.1,11,85.6,31.8,123.2L1.5,499.1
				c-1,3.5,0,7.3,2.6,9.9c1.9,2,4.6,3,7.3,3c0.9,0,1.7-0.1,2.6-0.3l125.3-32.9c36.1,18.9,76.7,29,117.8,29
				c139.9,0,253.8-113.9,253.8-253.8C510.9,186.2,484.5,122.4,436.6,74.4z M256.9,487.4c-38.9,0-77.5-9.8-111.5-28.4
				c-2.3-1.2-5-1.6-7.5-0.9L25.9,487.5l29.9-109.2c0.7-2.6,0.4-5.4-1-7.8c-20.4-35.3-31.2-75.7-31.2-116.7
				C23.7,125.1,128.4,20.4,257,20.4c62.4,0,121,24.3,165.1,68.4c44.1,44.1,68.3,102.8,68.3,165.1
				C490.4,382.7,385.7,487.4,256.9,487.4z"/>
		</g>
	</g>
</g>
<g>
	<g>
		<path class="st0" d="M445.8,354.4c-4.8-2.9-11.1-1.3-14,3.5c-36.7,61.4-103.6,99.5-174.9,99.5c-5.6,0-10.2,4.6-10.2,10.2
			s4.6,10.2,10.2,10.2c39.4,0,78.2-10.4,112.1-30.2c32.9-19.1,60.7-46.6,80.2-79.3C452.3,363.6,450.7,357.3,445.8,354.4z"/>
	</g>
</g>
<g>
	<g>
		<path class="st0" d="M464.7,305.4c-5.4-1.6-11.1,1.4-12.7,6.8c-1.2,3.9-2.5,7.8-3.9,11.6c-1.9,5.3,0.8,11.1,6.1,13.1
			c1.2,0.4,2.3,0.6,3.5,0.6c4.2,0,8.1-2.6,9.6-6.7c1.5-4.2,3-8.5,4.3-12.8C473.2,312.7,470.1,307,464.7,305.4z"/>
	</g>
</g>
<g>
	<g>
		<path class="st0" d="M377.7,330l-57.2-57.2c-2.6-2.6-6.5-3.6-10-2.6l-8.5,2.4c-1,0.3-2,0.7-2.9,1.3l-18.8,12.5
			c-22.4-15.5-41.9-35.3-57-58l13.7-13.7c1.2-1.2,2.1-2.7,2.6-4.4l2.4-8.5c1-3.6,0-7.4-2.6-10l-57.2-57.2c-2.8-2.8-7-3.7-10.8-2.3
			l-9.7,3.7c-1.4,0.5-2.6,1.3-3.6,2.3c-33.9,33.9-33.9,89,0,122.8l93.2,93.2c16.9,16.9,39.2,25.4,61.4,25.4
			c22.2,0,44.5-8.5,61.4-25.4c1-1,1.8-2.3,2.3-3.6l3.7-9.7C381.4,337.1,380.5,332.9,377.7,330z M358.1,341.3
			c-12.8,12-29.1,17.9-45.5,17.9c-17,0-34-6.5-47-19.4l-93.2-93.2c-25.4-25.4-25.9-66.4-1.5-92.4l1.4-0.5l48.4,48.4l-0.1,0.2
			l-17.6,17.6c-3.3,3.3-3.9,8.5-1.5,12.5c18.3,30,43.6,55.9,73.1,75c3.4,2.2,7.8,2.2,11.2-0.1l23.1-15.4l1.2-0.4l48.4,48.4
			L358.1,341.3z"/>
	</g>
</g>
</svg>
